<?xml version="1.0" standalone="no"?>
<!DOCTYPE svg PUBLIC "-//W3C//DTD SVG 20010904//EN"
 "http://www.w3.org/TR/2001/REC-SVG-20010904/DTD/svg10.dtd">
<svg version="1.0" xmlns="http://www.w3.org/2000/svg"
 width="500.000000pt" height="500.000000pt" viewBox="0 0 500.000000 500.000000"
 preserveAspectRatio="xMidYMid meet">

<g transform="translate(0.000000,500.000000) scale(0.100000,-0.100000)"
fill="#000000" stroke="none">
<path d="M1230 3660 c-19 -5 -44 -7 -55 -4 -26 6 -153 -31 -175 -51 -9 -8 -32
-18 -51 -21 -47 -9 -131 -58 -180 -105 -22 -21 -46 -39 -53 -39 -15 0 -126
-112 -126 -127 0 -6 -18 -29 -39 -51 -42 -43 -91 -131 -111 -197 -7 -22 -18
-47 -25 -55 -17 -19 -45 -128 -51 -194 -14 -175 -15 -200 -5 -224 6 -15 13
-56 15 -92 5 -69 31 -170 45 -170 4 0 13 -19 20 -42 21 -70 63 -146 108 -195
24 -25 43 -50 43 -56 0 -16 111 -127 127 -127 7 0 27 -15 46 -33 38 -38 150
-107 174 -107 24 0 83 -23 83 -32 0 -12 101 -39 170 -45 212 -19 458 6 510 52
16 14 60 30 73 27 14 -4 141 76 171 108 16 16 34 30 40 30 16 0 117 107 149
158 15 23 32 42 37 42 14 0 82 121 86 154 2 16 14 45 25 65 29 48 59 167 52
203 -3 16 0 39 6 52 27 50 -14 388 -53 436 -16 20 -36 67 -36 86 0 21 -73 144
-85 144 -11 0 -55 61 -55 76 0 16 -104 114 -121 114 -8 0 -35 19 -60 43 -45
43 -121 85 -194 107 -22 7 -47 18 -55 25 -18 16 -128 45 -167 45 -15 0 -77 2
-138 4 -60 3 -126 1 -145 -4z m319 -221 c217 -55 405 -208 507 -414 64 -131
79 -195 78 -350 0 -153 -14 -217 -79 -350 -129 -265 -404 -435 -699 -435 -231
1 -426 85 -583 253 -108 116 -171 247 -200 414 -29 171 7 361 99 518 61 104
202 240 303 292 190 98 377 121 574 72z"/>
<path d="M1194 3416 c-146 -34 -266 -99 -375 -206 -357 -351 -283 -941 149
-1196 282 -165 644 -129 891 87 251 221 325 602 176 906 -91 185 -247 320
-450 389 -66 22 -101 27 -205 30 -83 3 -146 -1 -186 -10z m145 -283 l-1 -268
-37 260 c-25 178 -34 262 -27 267 6 4 23 8 39 8 l27 0 -1 -267z m141 251 c48
-8 92 -19 100 -24 12 -7 -5 -59 -87 -277 -69 -186 -105 -269 -117 -271 -14 -3
-16 24 -16 292 0 275 1 296 18 296 9 0 55 -7 102 -16z m-236 -16 c3 -13 21
-142 41 -287 32 -230 36 -287 21 -270 -6 8 -226 521 -226 529 0 6 123 46 152
49 4 1 10 -9 12 -21z m411 -40 c14 -6 25 -16 25 -21 0 -12 -242 -458 -247
-454 -5 6 180 487 188 487 4 0 20 -5 34 -12z m-497 -230 c143 -331 134 -305
118 -311 -8 -3 -98 80 -220 202 l-208 208 41 32 c42 34 150 101 162 101 3 0
52 -105 107 -232z m623 155 c35 -27 64 -53 66 -58 4 -13 -404 -421 -413 -412
-4 3 42 95 102 204 60 109 122 224 139 255 16 32 33 58 37 58 4 0 35 -21 69
-47z m-537 -495 c-3 -5 -20 0 -37 10 -18 11 -132 74 -254 141 -123 67 -223
126 -223 130 0 10 54 87 83 119 l21 23 208 -208 c114 -113 205 -211 202 -215z
m669 370 c19 -24 49 -68 66 -99 l31 -56 -267 -117 c-183 -80 -270 -113 -277
-106 -7 7 54 74 194 215 113 113 208 205 212 205 4 0 22 -19 41 -42z m-958
-245 c128 -71 232 -129 231 -131 -4 -3 -488 179 -498 187 -7 7 17 71 28 71 3
0 111 -57 239 -127z m1085 1 c11 -36 20 -74 20 -83 0 -14 -42 -22 -279 -55
-259 -36 -338 -41 -286 -20 11 4 132 57 270 116 137 59 251 108 252 108 1 0
11 -30 23 -66z m-1086 -69 c152 -57 266 -105 266 -112 0 -10 -66 -13 -296 -13
l-297 0 7 63 c8 76 34 169 46 165 4 -2 128 -48 274 -103z m459 -65 c49 -39 41
-131 -12 -160 -50 -26 -121 3 -142 58 -12 32 5 87 34 107 31 21 89 19 120 -5z
m657 -25 l0 -35 -252 1 -253 1 220 33 c121 18 235 33 253 34 30 1 32 -1 32
-34z m-901 -60 c-9 -8 -520 -76 -530 -70 -10 7 -12 58 -2 68 3 4 126 7 271 7
146 0 263 -2 261 -5z m898 -62 c-3 -38 -13 -91 -22 -119 l-15 -52 -268 100
c-147 55 -271 104 -276 108 -27 26 16 30 296 30 l291 0 -6 -67z m-858 27 c-26
-15 -522 -230 -525 -227 -5 6 -33 96 -39 128 l-7 35 209 29 c114 15 228 31
253 35 69 12 128 11 109 0z m31 -33 c0 -7 -92 -104 -205 -217 l-205 -205 -28
34 c-36 44 -102 152 -102 165 0 9 510 235 533 236 4 0 7 -6 7 -13z m481 -136
c134 -74 246 -136 249 -138 7 -6 -28 -65 -65 -108 l-34 -40 -205 205 c-182
181 -227 230 -198 218 5 -1 118 -63 253 -137z m69 39 c124 -46 227 -85 229
-87 3 -2 -3 -19 -12 -38 l-17 -35 -37 19 c-73 37 -407 222 -413 228 -6 8 -14
11 250 -87z m-657 -199 c-76 -138 -140 -251 -143 -251 -3 0 -36 23 -74 51
l-69 51 209 209 c115 115 210 205 212 200 2 -6 -59 -123 -135 -260z m517 63
l205 -205 -37 -32 c-35 -31 -128 -91 -158 -101 -12 -4 -41 56 -129 258 -101
237 -117 286 -93 286 4 0 99 -93 212 -206z m-310 -114 l0 -290 -46 0 c-43 0
-184 27 -184 36 0 2 46 125 101 274 65 174 106 270 115 270 12 0 14 -50 14
-290z m169 33 c61 -141 111 -262 111 -268 0 -13 -99 -45 -137 -45 -25 0 -21
-15 -63 290 -17 124 -33 237 -36 253 -15 75 24 3 125 -230z m-323 -18 c-51
-134 -95 -247 -99 -251 -8 -8 -67 15 -67 27 0 9 250 469 255 469 1 0 -39 -110
-89 -245z m214 -15 c17 -124 33 -240 36 -257 6 -33 6 -33 -35 -33 l-41 0 1
268 c0 147 2 263 4 257 2 -5 18 -111 35 -235z"/>
<path d="M1332 2698 c-16 -16 -15 -33 2 -47 22 -18 48 -2 44 28 -3 28 -27 38
-46 19z"/>
</g>
</svg>
